# This file uses centimeters as units for non-parametric coordinates.

mtllib Post.mtl
g default
v -0.500000 -0.500000 0.500000
v 0.500000 -0.500000 0.500000
v -0.500000 7.009632 0.500000
v 0.500000 7.009632 0.500000
v -0.500000 7.009632 -0.500000
v 0.500000 7.009632 -0.500000
v -0.500000 -0.500000 -0.500000
v 0.500000 -0.500000 -0.500000
v -0.288489 7.177134 0.288489
v 0.288489 7.177134 0.288489
v 0.288489 7.177134 -0.288489
v -0.288489 7.177134 -0.288489
v -0.288489 7.369391 0.288489
v 0.288489 7.369391 0.288489
v 0.288489 7.369391 -0.288489
v -0.288489 7.369391 -0.288489
v -0.482112 7.535581 0.482112
v 0.482112 7.535581 0.482112
v 0.482112 7.535581 -0.482112
v -0.482112 7.535581 -0.482112
v -0.482112 8.543586 0.482112
v 0.482112 8.543586 0.482112
v 0.482112 8.543586 -0.482112
v -0.482112 8.543586 -0.482112
vt 0.235508 0.001992
vt 0.345643 0.001992
vt 0.345643 0.829066
vt 0.235508 0.829066
vt 0.322348 0.847514
vt 0.258803 0.847514
vt 0.322348 0.868688
vt 0.258803 0.868688
vt 0.343673 0.886991
vt 0.237478 0.886991
vt 0.343673 0.998008
vt 0.237478 0.998008
vt 0.352482 0.001992
vt 0.462617 0.001992
vt 0.462617 0.829066
vt 0.352482 0.829066
vt 0.439323 0.847514
vt 0.375777 0.847514
vt 0.439323 0.868688
vt 0.375777 0.868688
vt 0.460647 0.886991
vt 0.354452 0.886991
vt 0.460647 0.998008
vt 0.354452 0.998008
vt 0.586431 0.108187
vt 0.586431 0.001992
vt 0.692625 0.001992
vt 0.692625 0.108187
vt 0.469456 0.001992
vt 0.579592 0.001992
vt 0.579592 0.112127
vt 0.469456 0.112127
vt 0.001382 0.001992
vt 0.111518 0.001992
vt 0.111518 0.829066
vt 0.001382 0.829066
vt 0.088223 0.847514
vt 0.024677 0.847514
vt 0.088223 0.868688
vt 0.024677 0.868688
vt 0.109547 0.886991
vt 0.003353 0.886991
vt 0.109547 0.998008
vt 0.003353 0.998008
vt 0.118534 0.170934
vt 0.228669 0.170934
vt 0.228669 0.998008
vt 0.118534 0.998008
vt 0.141829 0.152486
vt 0.205374 0.152486
vt 0.141829 0.131312
vt 0.205374 0.131312
vt 0.120504 0.113009
vt 0.226699 0.113009
vt 0.120504 0.001992
vt 0.226699 0.001992
vn 0.000000 0.000000 1.000000
vn 0.000000 0.000000 1.000000
vn 0.000000 0.012678 0.999920
vn 0.000000 0.012678 0.999920
vn 0.000000 1.000000 0.000000
vn 0.000000 1.000000 0.000000
vn 0.000000 1.000000 0.000000
vn 0.000000 1.000000 0.000000
vn 0.000000 0.012678 -0.999920
vn 0.000000 0.012678 -0.999920
vn 0.000000 0.000000 -1.000000
vn 0.000000 0.000000 -1.000000
vn 0.000000 -1.000000 0.000000
vn 0.000000 -1.000000 0.000000
vn 0.000000 -1.000000 0.000000
vn 0.000000 -1.000000 0.000000
vn 1.000000 0.000000 0.000000
vn 1.000000 0.000000 0.000000
vn 0.999920 0.012678 0.000000
vn 0.999920 0.012678 0.000000
vn -1.000000 0.000000 0.000000
vn -1.000000 0.000000 0.000000
vn -0.999920 0.012678 0.000000
vn -0.999920 0.012678 0.000000
vn 0.000000 0.783947 0.620828
vn 0.000000 0.783947 0.620828
vn 0.620829 0.783946 0.000000
vn 0.620829 0.783946 0.000000
vn 0.000000 0.783947 -0.620828
vn 0.000000 0.783947 -0.620828
vn -0.620829 0.783946 0.000000
vn -0.620829 0.783946 0.000000
vn 0.000000 0.000000 1.000000
vn 0.000000 0.000000 1.000000
vn 0.000000 -0.585556 0.810632
vn 0.000000 -0.585556 0.810632
vn 1.000000 0.000000 0.000000
vn 1.000000 0.000000 0.000000
vn 0.810632 -0.585557 0.000000
vn 0.810632 -0.585557 0.000000
vn 0.000000 0.000000 -1.000000
vn 0.000000 0.000000 -1.000000
vn 0.000000 -0.585556 -0.810632
vn 0.000000 -0.585556 -0.810632
vn -1.000000 0.000000 0.000000
vn -1.000000 0.000000 0.000000
vn -0.810632 -0.585557 0.000000
vn -0.810632 -0.585557 0.000000
vn 0.000000 -0.758818 0.651303
vn 0.000000 -0.758818 0.651303
vn 0.651303 -0.758818 0.000000
vn 0.651303 -0.758818 0.000000
vn 0.000000 -0.758818 -0.651303
vn 0.000000 -0.758818 -0.651303
vn -0.651303 -0.758818 0.000000
vn -0.651303 -0.758818 0.000000
vn 0.000000 0.000000 1.000000
vn 0.000000 0.000000 1.000000
vn 0.000000 0.000000 1.000000
vn 0.000000 0.000000 1.000000
vn 1.000000 0.000000 0.000000
vn 1.000000 0.000000 0.000000
vn 1.000000 0.000000 0.000000
vn 1.000000 0.000000 0.000000
vn 0.000000 0.000000 -1.000000
vn 0.000000 0.000000 -1.000000
vn 0.000000 0.000000 -1.000000
vn 0.000000 0.000000 -1.000000
vn -1.000000 0.000000 0.000000
vn -1.000000 0.000000 0.000000
vn -1.000000 0.000000 0.000000
vn -1.000000 0.000000 0.000000
s 1
g FencePost
usemtl lambert2SG
f 1/33/1 2/34/2 4/35/3 3/36/4
s off
f 21/25/5 22/26/6 23/27/7 24/28/8
s 2
f 5/45/9 6/46/10 8/47/11 7/48/12
s off
f 7/29/13 8/30/14 2/31/15 1/32/16
s 3
f 2/1/17 8/2/18 6/3/19 4/4/20
s 4
f 7/13/21 1/14/22 3/15/23 5/16/24
s 1
f 3/36/4 4/35/3 10/37/25 9/38/26
s 3
f 4/4/20 6/3/19 11/5/27 10/6/28
s 2
f 6/46/10 5/45/9 12/49/29 11/50/30
s 4
f 5/16/24 3/15/23 9/17/31 12/18/32
s 5
f 9/38/33 10/37/34 14/39/35 13/40/36
s 6
f 10/6/37 11/5/38 15/7/39 14/8/40
s 7
f 11/50/41 12/49/42 16/51/43 15/52/44
s 8
f 12/18/45 9/17/46 13/19/47 16/20/48
s 5
f 13/40/36 14/39/35 18/41/49 17/42/50
s 6
f 14/8/40 15/7/39 19/9/51 18/10/52
s 7
f 15/52/44 16/51/43 20/53/53 19/54/54
s 8
f 16/20/48 13/19/47 17/21/55 20/22/56
s off
f 17/42/57 18/41/58 22/43/59 21/44/60
f 18/10/61 19/9/62 23/11/63 22/12/64
f 19/54/65 20/53/66 24/55/67 23/56/68
f 20/22/69 17/21/70 21/23/71 24/24/72
