# This file uses centimeters as units for non-parametric coordinates.

mtllib Post2.mtl
g default
v -0.500000 -0.500000 0.500000
v 0.500000 -0.500000 0.500000
v -0.500000 7.009632 0.500000
v 0.500000 7.009632 0.500000
v -0.500000 7.009632 -0.500000
v 0.500000 7.009632 -0.500000
v -0.500000 -0.500000 -0.500000
v 0.500000 -0.500000 -0.500000
v -0.288489 7.177134 0.288489
v 0.288489 7.177134 0.288489
v 0.288489 7.177134 -0.288489
v -0.288489 7.177134 -0.288489
v -0.288489 7.369391 0.288489
v 0.288489 7.369391 0.288489
v 0.288489 7.369391 -0.288489
v -0.288489 7.369391 -0.288489
v -0.482112 7.535581 0.482112
v 0.482112 7.535581 0.482112
v 0.482112 7.535581 -0.482112
v -0.482112 7.535581 -0.482112
v -0.482112 8.543586 0.482112
v 0.482112 8.543586 0.482112
v 0.482112 8.543586 -0.482112
v -0.482112 8.543586 -0.482112
vt 0.233513 0.001992
vt 0.347089 0.001992
vt 0.347089 0.829066
vt 0.233513 0.829066
vt 0.347089 0.847514
vt 0.233513 0.847514
vt 0.347089 0.868688
vt 0.233513 0.868688
vt 0.347089 0.886991
vt 0.233513 0.886991
vt 0.347088 0.998008
vt 0.233513 0.998008
vt 0.002482 0.001992
vt 0.117000 0.001992
vt 0.117000 0.829066
vt 0.002482 0.829066
vt 0.117000 0.847514
vt 0.005777 0.847514
vt 0.117000 0.868688
vt 0.005777 0.868688
vt 0.117000 0.886991
vt 0.004452 0.886991
vt 0.117000 0.998008
vt 0.004452 0.998008
vt 0.586431 0.108187
vt 0.586431 0.001992
vt 0.692625 0.001992
vt 0.692625 0.108187
vt 0.469456 0.001992
vt 0.579592 0.001992
vt 0.579592 0.112127
vt 0.469456 0.112127
vt 0.458669 0.829066
vt 0.458669 0.001992
vt 0.455374 0.847514
vt 0.455374 0.868688
vt 0.456699 0.886991
vt 0.456699 0.998008
vn 0.000000 0.000000 1.000000
vn 0.000000 0.000000 1.000000
vn 0.000000 0.012678 0.999920
vn 0.000000 0.012678 0.999920
vn 0.000000 1.000000 0.000000
vn 0.000000 1.000000 0.000000
vn 0.000000 1.000000 0.000000
vn 0.000000 1.000000 0.000000
vn 0.000000 0.012678 -0.999920
vn 0.000000 0.012678 -0.999920
vn 0.000000 0.000000 -1.000000
vn 0.000000 0.000000 -1.000000
vn 0.000000 -1.000000 0.000000
vn 0.000000 -1.000000 0.000000
vn 0.000000 -1.000000 0.000000
vn 0.000000 -1.000000 0.000000
vn 1.000000 0.000000 0.000000
vn 1.000000 0.000000 0.000000
vn 0.999920 0.012678 0.000000
vn 0.999920 0.012678 0.000000
vn -1.000000 0.000000 0.000000
vn -1.000000 0.000000 0.000000
vn -0.999920 0.012678 0.000000
vn -0.999920 0.012678 0.000000
vn 0.000000 0.783947 0.620828
vn 0.000000 0.783947 0.620828
vn 0.620829 0.783946 0.000000
vn 0.620829 0.783946 0.000000
vn 0.000000 0.783947 -0.620828
vn 0.000000 0.783947 -0.620828
vn -0.620829 0.783946 0.000000
vn -0.620829 0.783946 0.000000
vn 0.000000 0.000000 1.000000
vn 0.000000 0.000000 1.000000
vn 0.000000 -0.585556 0.810632
vn 0.000000 -0.585556 0.810632
vn 1.000000 0.000000 0.000000
vn 1.000000 0.000000 0.000000
vn 0.810632 -0.585557 0.000000
vn 0.810632 -0.585557 0.000000
vn 0.000000 0.000000 -1.000000
vn 0.000000 0.000000 -1.000000
vn 0.000000 -0.585556 -0.810632
vn 0.000000 -0.585556 -0.810632
vn -1.000000 0.000000 0.000000
vn -1.000000 0.000000 0.000000
vn -0.810632 -0.585557 0.000000
vn -0.810632 -0.585557 0.000000
vn 0.000000 -0.758818 0.651303
vn 0.000000 -0.758818 0.651303
vn 0.651303 -0.758818 0.000000
vn 0.651303 -0.758818 0.000000
vn 0.000000 -0.758818 -0.651303
vn 0.000000 -0.758818 -0.651303
vn -0.651303 -0.758818 0.000000
vn -0.651303 -0.758818 0.000000
vn 0.000000 0.000000 1.000000
vn 0.000000 0.000000 1.000000
vn 0.000000 0.000000 1.000000
vn 0.000000 0.000000 1.000000
vn 1.000000 0.000000 0.000000
vn 1.000000 0.000000 0.000000
vn 1.000000 0.000000 0.000000
vn 1.000000 0.000000 0.000000
vn 0.000000 0.000000 -1.000000
vn 0.000000 0.000000 -1.000000
vn 0.000000 0.000000 -1.000000
vn 0.000000 0.000000 -1.000000
vn -1.000000 0.000000 0.000000
vn -1.000000 0.000000 0.000000
vn -1.000000 0.000000 0.000000
vn -1.000000 0.000000 0.000000
s 1
g FencePost
usemtl lambert2SG
f 1/14/1 2/1/2 4/4/3 3/15/4
s off
f 21/25/5 22/26/6 23/27/7 24/28/8
s 2
f 5/33/9 6/3/10 8/2/11 7/34/12
s off
f 7/29/13 8/30/14 2/31/15 1/32/16
s 3
f 2/1/17 8/2/18 6/3/19 4/4/20
s 4
f 7/13/21 1/14/22 3/15/23 5/16/24
s 1
f 3/15/4 4/4/3 10/6/25 9/17/26
s 3
f 4/4/20 6/3/19 11/5/27 10/6/28
s 2
f 6/3/10 5/33/9 12/35/29 11/5/30
s 4
f 5/16/24 3/15/23 9/17/31 12/18/32
s 5
f 9/17/33 10/6/34 14/8/35 13/19/36
s 6
f 10/6/37 11/5/38 15/7/39 14/8/40
s 7
f 11/5/41 12/35/42 16/36/43 15/7/44
s 8
f 12/18/45 9/17/46 13/19/47 16/20/48
s 5
f 13/19/36 14/8/35 18/10/49 17/21/50
s 6
f 14/8/40 15/7/39 19/9/51 18/10/52
s 7
f 15/7/44 16/36/43 20/37/53 19/9/54
s 8
f 16/20/48 13/19/47 17/21/55 20/22/56
s off
f 17/21/57 18/10/58 22/12/59 21/23/60
f 18/10/61 19/9/62 23/11/63 22/12/64
f 19/9/65 20/37/66 24/38/67 23/11/68
f 20/22/69 17/21/70 21/23/71 24/24/72
